HIERARCHY
ROOT LeftUpLeg
{
	OFFSET -0.855111 -0.040800 -0.443847
	CHANNELS 6 Xposition Yposition Zposition Xrotation Yrotation Zrotation
	JOINT LeftLowLeg
	{
		OFFSET -0.288317 -0.259266 -4.271904
		CHANNELS 3 Xrotation Yrotation Zrotation
		JOINT LeftFoot
		{
			OFFSET 0.071002 -1.713238 -4.510423
			CHANNELS 3 Xrotation Yrotation Zrotation
			JOINT LeftToe
			{
				OFFSET -0.418889 1.135683 -0.921323
				CHANNELS 3 Xrotation Yrotation Zrotation
				End Site
				{
					OFFSET -0.363018 1.461935 -0.212233
				}
			}
		}
	}
}
MOTION
Frames: 34
Frame Time: 0.033333
-0.855111 -0.040800 -0.443847 1.848530 -4.198551 -5.940204 15.117971 2.910447 -4.842067 -9.321926 -1.931427 -8.140289 -0.914880 3.967841 3.865320 
-0.855111 -0.040800 -0.443847 16.459474 3.320015 -3.891786 -15.175777 -0.610444 -1.083089 4.163074 -5.069859 -1.808897 0.545006 6.122445 -0.268792 
-0.855111 -0.040800 -0.443847 18.722927 5.516597 -3.816295 -20.257366 -2.111956 -0.712506 6.137053 -5.984199 0.131638 0.775661 6.576759 -2.059073 
-0.855111 -0.040800 -0.443847 18.156661 6.089417 -3.900560 -19.328392 -2.840375 -0.848433 5.177553 -6.495927 -0.114845 0.962193 6.391390 -2.988399 
-0.855111 -0.040800 -0.443847 18.810293 6.799546 -3.936508 -20.476882 -3.620077 -0.746752 5.073091 -7.019156 -0.968976 1.474902 6.215494 -3.719099 
-0.855111 -0.040800 -0.443847 19.411155 7.256881 -4.072650 -21.159619 -3.863001 -0.370023 4.643714 -7.544591 -1.914916 1.776038 6.377144 -4.056978 
-0.855111 -0.040800 -0.443847 19.349815 7.396598 -4.042171 -20.836467 -3.778134 -0.120539 4.186267 -7.779040 -2.637071 1.754497 6.600660 -4.039414 
-0.855111 -0.040800 -0.443847 19.062141 7.342239 -3.938370 -20.156322 -3.602132 0.054075 3.554673 -7.900314 -3.209712 1.570829 6.859674 -3.907175 
-0.855111 -0.040800 -0.443847 18.438912 7.089933 -3.781022 -18.985124 -3.298345 0.172032 2.948143 -7.930268 -3.557124 1.372741 7.029316 -3.699346 
-0.855111 -0.040800 -0.443847 17.504773 6.682714 -3.587694 -17.404026 -2.882757 0.223728 2.424520 -7.884219 -3.670063 1.200628 7.098910 -3.453301 
-0.855111 -0.040800 -0.443847 16.417039 6.211772 -3.369565 -15.708359 -2.425980 0.178484 1.900398 -7.766140 -3.606183 0.986213 7.171311 -3.202674 
-0.855111 -0.040800 -0.443847 15.324057 5.757933 -3.180132 -14.188112 -1.954069 0.149316 1.607970 -7.565976 -3.391341 0.831452 7.151657 -2.895016 
-0.855111 -0.040800 -0.443847 14.438658 5.393702 -3.014380 -13.081766 -1.642787 0.134470 1.316854 -7.362462 -3.173965 0.616969 7.096439 -2.609468 
-0.855111 -0.040800 -0.443847 13.733490 5.091421 -2.865123 -12.318881 -1.472271 0.146174 1.267017 -7.072424 -2.967769 0.342107 7.016306 -2.314306 
-0.855111 -0.040800 -0.443847 13.159988 4.828779 -2.722089 -11.803377 -1.417062 0.192004 1.428058 -6.689927 -2.823965 0.022209 6.905030 -1.983676 
-0.855111 -0.040800 -0.443847 12.648228 4.588698 -2.571509 -11.413360 -1.446075 0.276160 1.501052 -6.288875 -2.827742 -0.311062 6.739721 -1.597721 
-0.855111 -0.040800 -0.443847 11.900982 4.205728 -2.372475 -10.727333 -1.412715 0.342536 1.435716 -5.763145 -2.754799 -0.730599 6.271396 -1.047855 
-0.855111 -0.040800 -0.443847 11.250733 3.766475 -2.166275 -10.308910 -1.488674 0.427484 1.700864 -4.968833 -2.696766 -1.153343 5.691808 -0.488284 
-0.855111 -0.040800 -0.443847 10.464498 3.252814 -1.918753 -9.713816 -1.554286 0.498602 1.865567 -4.179414 -2.583276 -1.490087 5.011457 0.041302 
-0.855111 -0.040800 -0.443847 9.547536 2.680147 -1.636142 -8.922088 -1.591638 0.565490 1.879338 -3.421545 -2.428889 -1.739799 4.242568 0.525418 
-0.855111 -0.040800 -0.443847 8.741692 2.101256 -1.358400 -8.337606 -1.684756 0.681289 2.073024 -2.473973 -2.347272 -1.988811 3.396675 0.970061 
-0.855111 -0.040800 -0.443847 8.115383 1.551970 -1.112954 -8.000648 -1.795463 0.759361 2.178295 -1.657753 -2.037192 -2.079204 2.646666 1.215677 
-0.855111 -0.040800 -0.443847 7.462600 1.010478 -0.867972 -7.681762 -1.860169 0.765625 2.457448 -0.723373 -1.624808 -2.314137 1.911895 1.487403 
-0.855111 -0.040800 -0.443847 6.729013 0.483449 -0.628600 -7.207082 -1.838740 0.754911 2.513971 0.085863 -1.125362 -2.432097 1.225706 1.657206 
-0.855111 -0.040800 -0.443847 5.921726 -0.007115 -0.398026 -6.566645 -1.746751 0.753770 2.350959 0.720573 -0.567334 -2.392639 0.619910 1.696039 
-0.855111 -0.040800 -0.443847 5.109184 -0.423311 -0.175508 -5.914491 -1.655812 0.761868 2.367544 1.333990 -0.007144 -2.372926 0.122340 1.666847 
-0.855111 -0.040800 -0.443847 4.307098 -0.850852 0.058643 -5.226224 -1.470860 0.856265 2.244391 1.931011 0.681201 -2.231159 -0.235454 1.488825 
-0.855111 -0.040800 -0.443847 3.385629 -1.258219 0.354917 -4.288624 -1.255159 0.984943 1.964065 2.331910 1.196758 -2.097635 -0.564371 1.303009 
-0.855111 -0.040800 -0.443847 2.361600 -1.650696 0.684766 -3.119681 -0.987845 1.162558 1.491575 2.466848 1.636859 -1.815978 -0.851504 1.015102 
-0.855111 -0.040800 -0.443847 1.382294 -2.020507 1.014383 -1.985197 -0.694954 1.422965 1.032165 2.403545 2.017528 -1.357329 -1.041575 0.616550 
-0.855111 -0.040800 -0.443847 0.725379 -2.344634 1.307142 -1.398506 -0.452155 1.824809 1.029865 2.351667 2.277688 -0.818360 -1.034548 0.181674 
-0.855111 -0.040800 -0.443847 0.224360 -2.594630 1.467309 -0.997508 -0.300851 2.103601 1.129432 2.281162 2.240753 -0.591319 -1.038527 0.137782 
-0.855111 -0.040800 -0.443847 -0.002552 -2.692281 1.520136 -1.099970 -0.331228 2.300056 1.669534 2.240891 2.122773 -0.412436 -0.918366 0.121880 
-0.855111 -0.040800 -0.443847 -0.127828 -2.638909 1.528071 -1.402050 -0.457314 2.397495 2.295101 2.177301 1.897583 -0.349884 -0.770752 0.203959 
